<?xml version="1.0" encoding="UTF-8"?>
<svg width="752pt" height="752pt" version="1.1" viewBox="0 0 752 752" xmlns="http://www.w3.org/2000/svg">
 <path d="m583.9 270.87h-145.39c-14.68 0-26.992 11.84-26.992 26.992v109.4c0 14.68 11.84 26.992 26.992 26.992h27.465v39.309c0 1.8945 1.8945 2.3672 3.3164 1.4219l40.727-40.727v-0.47266h73.879c14.68 0 26.992-11.84 26.992-26.992l0.003907-109.4c-0.47266-14.68-12.312-26.52-26.996-26.52zm-63.934 127.39c0 2.8398-2.3672 5.2109-5.2109 5.2109h-13.262c-2.8398 0-5.2109-2.3672-5.2109-5.2109v-8.5234c0-2.8398 2.3672-5.2109 5.2109-5.2109h13.262c2.8398 0 5.2109 2.3672 5.2109 5.2109zm20.84-50.672c-3.3164 4.7344-8.0508 8.5234-13.262 11.367-2.8398 1.8945-5.2109 4.2617-6.1562 6.1562-0.94531 1.4219-1.4219 3.7891-1.4219 6.1562 0 1.8945-1.8945 3.3164-3.7891 3.3164h-16.102c-1.8945 0-3.7891-1.8945-3.7891-3.7891 0.47266-4.7344 1.4219-8.0508 3.3164-10.418 2.3672-3.3164 6.6289-7.1055 12.312-11.367 3.3164-1.8945 5.6836-4.2617 7.5781-7.1055 1.8945-2.8398 2.8398-6.1562 2.8398-9.9453 0-3.7891-0.94531-7.1055-3.3164-9.4727-1.8945-2.3672-5.2109-3.3164-8.9961-3.3164-3.3164 0-5.6836 0.94531-7.5781 2.8398-1.4219 1.4219-2.3672 2.8398-2.8398 4.7344-0.47266 1.9023-2.8398 3.3203-5.207 3.3203l-15.156-0.47266c-1.8945 0-3.3164-1.4219-3.3164-3.3164 0.47266-8.0508 3.7891-14.207 8.9961-18.469 6.1562-4.7344 14.68-7.1055 25.102-7.1055 10.891 0 19.891 2.8398 26.047 8.5234s9.4727 13.262 9.4727 22.73c0.47266 5.2148-1.4219 10.898-4.7344 15.633zm-346.19 5.2109c2.3672 7.5781 6.1562 22.258 15.156 30.781 6.6289 25.574 26.992 55.41 59.199 66.773 7.5781 2.8398 15.629 4.2617 24.152 4.2617 8.5234 0 16.574-1.4219 24.152-4.2617 32.203-11.84 52.566-41.203 59.199-66.773 8.9961-8.5234 13.262-23.207 15.156-30.781 3.3164-12.312 7.1055-29.836-2.3672-42.148-0.47266-0.47266-0.94531-0.94531-0.94531-1.4219 5.2109-32.203 1.4219-56.355-10.891-72.457-5.6836-7.5781-12.312-11.367-17.996-13.734-4.2617-5.2109-11.367-12.312-21.785-18.469-12.785-7.5781-26.992-11.367-42.621-11.367-2.8398 0-5.2109 0-8.0508 0.47266-7.1055 0.47266-14.207 1.8945-20.836 3.7891-7.5781 2.3672-14.68 6.1562-21.785 11.367-8.0508 5.2109-15.156 10.891-21.312 17.523-12.312 12.785-20.363 26.992-24.152 43.098-2.8398 11.84-3.3164 24.152-0.47266 39.309-0.47266 0.47266-0.94531 0.94531-0.94531 1.4219-9.4883 12.781-6.1719 30.305-2.8555 42.617zm23.68-34.098h1.4219s5.6836-74.824 65.828-48.777c31.73 13.262 54.934 12.785 70.09 8.9961 18.941 13.262 13.734 35.52 12.312 38.832v0.47266h1.4219c6.1562 0 12.785 4.7344 5.6836 28.887-5.2109 18.941-10.418 24.152-14.207 24.625-3.3164 22.258-21.312 50.672-49.254 60.617-5.6836 1.8945-11.84 3.3164-17.996 3.3164s-12.312-0.94531-17.996-2.8398c-28.414-9.9453-45.465-38.359-49.254-61.094-3.7891-0.47266-8.5234-5.6836-14.207-24.625-6.6328-23.203-0.47656-28.41 6.1562-28.41zm152.02 115.08c16.574 8.9961 44.988 25.102 74.824 46.883-33.625 46.887-89.035 77.672-151.55 77.672-62.512 0-117.92-30.785-152.02-77.668 29.836-21.785 58.25-37.887 74.824-46.883 11.367 14.207 26.992 26.52 46.883 33.625 9.4727 3.3164 19.891 5.2109 29.836 5.2109 10.418 0 20.363-1.8945 30.309-5.2109 19.895-7.582 35.523-19.895 46.891-33.629z" fill="#0800ff"/>
</svg>
